<svg viewBox="0 0 24 24" fill="none" xmlns="http://www.w3.org/2000/svg">
<path d="M15.0998 16.3999H8.49988C8.20815 16.3999 7.92837 16.5158 7.72208 16.7221C7.51579 16.9284 7.3999 17.2082 7.3999 17.4999C7.3999 17.7916 7.51579 18.0714 7.72208 18.2777C7.92837 18.484 8.20815 18.5999 8.49988 18.5999H15.0998C15.3915 18.5999 15.6713 18.484 15.8776 18.2777C16.0839 18.0714 16.1997 17.7916 16.1997 17.4999C16.1997 17.2082 16.0839 16.9284 15.8776 16.7221C15.6713 16.5158 15.3915 16.3999 15.0998 16.3999ZM8.49988 14.2H11.7998C12.0916 14.2 12.3713 14.0841 12.5776 13.8778C12.7839 13.6715 12.8998 13.3917 12.8998 13.1C12.8998 12.8082 12.7839 12.5285 12.5776 12.3222C12.3713 12.1159 12.0916 12 11.7998 12H8.49988C8.20815 12 7.92837 12.1159 7.72208 12.3222C7.51579 12.5285 7.3999 12.8082 7.3999 13.1C7.3999 13.3917 7.51579 13.6715 7.72208 13.8778C7.92837 14.0841 8.20815 14.2 8.49988 14.2Z" fill="currentColor"/>
<path d="M20.3137 7.96307L14.3298 1.36319C14.227 1.24924 14.1014 1.15808 13.9612 1.09556C13.821 1.03304 13.6693 1.00056 13.5158 1.0002H5.81595C5.45048 0.995839 5.08773 1.06351 4.74842 1.19936C4.40911 1.3352 4.09988 1.53655 3.83838 1.79191C3.57689 2.04727 3.36827 2.35164 3.22442 2.68764C3.08056 3.02364 3.00431 3.38468 3 3.75015V20.2498C3.00431 20.6153 3.08056 20.9764 3.22442 21.3124C3.36827 21.6484 3.57689 21.9527 3.83838 22.2081C4.09988 22.4634 4.40911 22.6648 4.74842 22.8006C5.08773 22.9365 5.45048 23.0042 5.81595 22.9998H17.7837C18.1492 23.0042 18.512 22.9365 18.8513 22.8006C19.1906 22.6648 19.4998 22.4634 19.7613 22.2081C20.0228 21.9527 20.2314 21.6484 20.3753 21.3124C20.5191 20.9764 20.5954 20.6153 20.5997 20.2498V8.70006C20.599 8.42744 20.4971 8.16481 20.3137 7.96307ZM13.9998 4.30014L17.0137 7.60008H14.8138C14.6986 7.59312 14.5859 7.5633 14.4824 7.51234C14.3789 7.46137 14.2865 7.3903 14.2107 7.30326C14.135 7.21623 14.0773 7.11497 14.0411 7.0054C14.0049 6.89583 13.9908 6.78015 13.9998 6.6651V4.30014ZM17.7837 20.7998H5.81595C5.73936 20.8043 5.66265 20.7936 5.59021 20.7683C5.51776 20.7431 5.45102 20.7038 5.39379 20.6527C5.33656 20.6016 5.28999 20.5397 5.25672 20.4706C5.22346 20.4015 5.20417 20.3264 5.19996 20.2498V3.75015C5.20417 3.67355 5.22346 3.59853 5.25672 3.5294C5.28999 3.46027 5.33656 3.39838 5.39379 3.34729C5.45102 3.29619 5.51776 3.2569 5.59021 3.23165C5.66265 3.2064 5.73936 3.1957 5.81595 3.20016H11.7998V6.6651C11.7821 7.47537 12.0856 8.25976 12.644 8.84709C13.2025 9.43442 13.9706 9.77699 14.7808 9.80004H18.3997V20.2498C18.3955 20.3264 18.3762 20.4015 18.343 20.4706C18.3097 20.5397 18.2631 20.6016 18.2059 20.6527C18.1487 20.7038 18.0819 20.7431 18.0095 20.7683C17.937 20.7936 17.8603 20.8043 17.7837 20.7998Z" fill="currentColor"/>
</svg>
