<svg viewBox="0 0 24 24" xmlns="http://www.w3.org/2000/svg">
<path d="M12 22C13.3132 22 14.6136 21.7413 15.8268 21.2388C17.0401 20.7362 18.1425 19.9997 19.0711 19.0711C19.9997 18.1425 20.7362 17.0401 21.2388 15.8268C21.7413 14.6136 22 13.3132 22 12C22 10.6868 21.7413 9.38642 21.2388 8.17317C20.7362 6.95991 19.9997 5.85752 19.0711 4.92893C18.1425 4.00035 17.0401 3.26375 15.8268 2.7612C14.6136 2.25866 13.3132 2 12 2C9.34783 2 6.8043 3.05357 4.92893 4.92893C3.05357 6.8043 2 9.34783 2 12C2 14.6522 3.05357 17.1957 4.92893 19.0711C6.8043 20.9464 9.34783 22 12 22ZM12 3.66667C12.6233 3.66667 13.4583 4.26 14.1883 5.86333C14.345 6.21111 14.4894 6.59 14.6217 7H9.37833C9.49958 6.61267 9.64429 6.23308 9.81167 5.86333C10.5417 4.26 11.3783 3.66667 12 3.66667ZM8.295 5.17333C8.04278 5.72889 7.82444 6.33778 7.64 7H5.33333C6.21157 5.82809 7.38313 4.90832 8.73 4.33333C8.57183 4.60631 8.42667 4.88663 8.295 5.17333ZM7.27167 8.66667C7.08821 9.76824 6.99733 10.8833 7 12C7 13.165 7.095 14.2883 7.27167 15.3333H4.36C3.90195 14.2818 3.66592 13.147 3.66667 12C3.66667 10.815 3.91333 9.68667 4.36 8.66667H7.27167ZM7.64 17C7.82444 17.6622 8.04278 18.2711 8.295 18.8267C8.42722 19.1178 8.57167 19.3978 8.72833 19.6667C7.38207 19.0914 6.21111 18.1717 5.33333 17H7.64ZM9.37833 17H14.6217C14.5004 17.3873 14.3557 17.7669 14.1883 18.1367C13.4583 19.74 12.6217 20.3333 12 20.3333C11.3767 20.3333 10.5417 19.74 9.81167 18.1367C9.64429 17.7669 9.49958 17.3873 9.37833 17ZM15.035 15.3333H8.96667C8.76524 14.2337 8.66483 13.1179 8.66667 12C8.66667 10.81 8.77333 9.68333 8.965 8.66667H15.0333C15.225 9.68333 15.3317 10.81 15.3317 12C15.3317 13.19 15.225 14.3167 15.0333 15.3333M16.3583 17H18.6667C17.7884 18.1719 16.6169 19.0917 15.27 19.6667C15.4289 19.3978 15.5733 19.1178 15.7033 18.8267C15.9578 18.2711 16.1767 17.6622 16.36 17M19.64 15.3333H16.7283C16.9118 14.2318 17.0027 13.1167 17 12C17 10.835 16.905 9.71333 16.7283 8.66667H19.64C20.0867 9.68667 20.3333 10.815 20.3333 12C20.3333 13.185 20.0867 14.3133 19.64 15.3333ZM15.27 4.33333C16.6169 4.90832 17.7884 5.82809 18.6667 7H16.36C16.1893 6.37506 15.9703 5.76433 15.705 5.17333C15.5739 4.88666 15.4293 4.60635 15.2717 4.33333" fill="currentColor"/>
</svg>
